<?xml version="1.0" encoding="UTF-8" standalone="no"?>
<svg width="102px" height="102px" viewBox="0 0 102 102" version="1.1" xmlns="http://www.w3.org/2000/svg" xmlns:xlink="http://www.w3.org/1999/xlink">
    <!-- Generator: Sketch 3.8.3 (29802) - http://www.bohemiancoding.com/sketch -->
    <title>drunk</title>
    <desc>Created with Sketch.</desc>
    <defs>
        <rect id="path-1" x="46" y="45" width="39" height="24" rx="8"></rect>
        <mask id="mask-2" maskContentUnits="userSpaceOnUse" maskUnits="objectBoundingBox" x="0" y="0" width="39" height="24" fill="white">
            <use xlink:href="#path-1"></use>
        </mask>
        <rect id="path-3" x="33" y="33" width="36" height="48"></rect>
        <mask id="mask-4" maskContentUnits="userSpaceOnUse" maskUnits="objectBoundingBox" x="-2" y="-2" width="40" height="52">
            <rect x="31" y="31" width="40" height="52" fill="white"></rect>
            <use xlink:href="#path-3" fill="black"></use>
        </mask>
    </defs>
    <g id="drunk" stroke="none" stroke-width="1" fill="none" fill-rule="evenodd">
        <use id="Rectangle-3" stroke="#FFFFFF" mask="url(#mask-2)" stroke-width="10" xlink:href="#path-1"></use>
        <rect id="Rectangle-4" fill="#FF0000" x="45" y="42" width="27" height="30"></rect>
        <rect id="Rectangle-1" fill="#FFFFFF" x="35" y="44" width="32" height="35"></rect>
        <use id="Rectangle-2" stroke="#FFFFFF" mask="url(#mask-4)" stroke-width="4" stroke-linecap="round" stroke-linejoin="round" xlink:href="#path-3"></use>
        <path d="M33.0559728,28.3327421 C32.7195902,28.3327417 33.8317606,21.1914057 38.2413795,23.0634308 C39.3410941,23.530295 39.9317527,17.2943467 47.0829602,20.5393164 C48.8622525,21.3466974 51.8247504,14.0119542 57.0374429,21.1546379 C57.6015192,21.9275627 62.4779049,17.0083692 63.9236737,24.1898546 C64.0327426,24.7316267 68.9999964,23.7346134 69,28.3327422 C69.0000002,28.5886164 33.5031116,28.3327425 33.0559728,28.3327421 Z" id="Path-1" stroke="#FFFFFF" stroke-width="2" fill="#FFFFFF"></path>
        <circle id="Oval-10" fill="#FFFFFF" cx="64.5" cy="40.5" r="1.5"></circle>
        <circle id="Oval-10" fill="#FFFFFF" cx="38.5" cy="40.5" r="1.5"></circle>
        <circle id="Oval-10" fill="#FFFFFF" cx="43" cy="41" r="1"></circle>
        <circle id="Oval-10" fill="#FFFFFF" cx="48" cy="40" r="1"></circle>
        <circle id="Oval-10" fill="#FFFFFF" cx="59" cy="41" r="1"></circle>
        <circle id="Oval-10" fill="#FFFFFF" cx="66" cy="36" r="1"></circle>
        <circle id="Oval-10" fill="#FFFFFF" cx="37" cy="35" r="1"></circle>
        <circle id="Oval-10" fill="#FFFFFF" cx="52.5" cy="37.5" r="1.5"></circle>
        <circle id="Oval-10" fill="#FFFFFF" cx="43.5" cy="35.5" r="1.5"></circle>
        <circle id="Oval-10" fill="#FFFFFF" cx="59" cy="37" r="2"></circle>
    </g>
</svg>