<?xml version="1.0" encoding="UTF-8" standalone="no"?>
<svg width="102px" height="102px" viewBox="0 0 102 102" version="1.1" xmlns="http://www.w3.org/2000/svg" xmlns:xlink="http://www.w3.org/1999/xlink">
    <!-- Generator: Sketch 3.8.3 (29802) - http://www.bohemiancoding.com/sketch -->
    <title>switcharoonie</title>
    <desc>Created with Sketch.</desc>
    <defs></defs>
    <g id="switcharoonie" stroke="none" stroke-width="1" fill="none" fill-rule="evenodd">
        <circle id="Oval-2" fill="#FFFFFF" cx="29.6136002" cy="40.4385877" r="5.5"></circle>
        <circle id="Oval-2" fill="#FFFFFF" cx="51.5" cy="76.0034242" r="5.5"></circle>
        <circle id="Oval-2" fill="#FFFFFF" cx="73.3534262" cy="40.5614123" r="5.5"></circle>
        <path d="M41.9062536,73.9905168 C41.9062536,73.9905168 28.7736231,68.7853472 27.3369118,55.0325968" id="Line" stroke="#FFFFFF" stroke-width="2" stroke-linecap="square"></path>
        <path d="M81.8156878,64.8210666 C81.8156878,64.8210666 70.0270589,66.3362893 60.9969027,55.6031055" id="Line" stroke="#FFFFFF" stroke-width="2" stroke-linecap="square" transform="translate(71.406295, 60.248814) scale(-1, -1) rotate(90.000000) translate(-71.406295, -60.248814) "></path>
        <path d="M61.9069823,26.9985499 C61.9069823,26.9985499 51.3918098,37.3441186 35.6925787,30.6883239" id="Line" stroke="#FFFFFF" stroke-width="2" stroke-linecap="square" transform="translate(48.799780, 29.959805) scale(-1, -1) translate(-48.799780, -29.959805) "></path>
        <polygon id="Triangle-1" fill="#FFFFFF" transform="translate(27.455260, 53.586001) rotate(-3.000000) translate(-27.455260, -53.586001) " points="27.4552601 49.1829255 31.8583358 57.9890767 23.0521845 57.9890767"></polygon>
        <polygon id="Triangle-1" fill="#FFFFFF" transform="translate(64.222778, 31.165843) rotate(123.000000) translate(-64.222778, -31.165843) " points="64.2227784 26.7627671 68.6258541 35.5689184 59.8197028 35.5689184"></polygon>
        <polygon id="Triangle-1" fill="#FFFFFF" transform="translate(63.472972, 72.183435) rotate(-119.000000) translate(-63.472972, -72.183435) " points="63.4729722 67.7803593 67.8760479 76.5865106 59.0698966 76.5865106"></polygon>
    </g>
</svg>