<?xml version="1.0" encoding="UTF-8" standalone="no"?>
<svg width="102px" height="102px" viewBox="0 0 102 102" version="1.1" xmlns="http://www.w3.org/2000/svg" xmlns:xlink="http://www.w3.org/1999/xlink">
    <!-- Generator: Sketch 3.8.3 (29802) - http://www.bohemiancoding.com/sketch -->
    <title>drunk</title>
    <desc>Created with Sketch.</desc>
    <defs>
        <rect id="path-1" x="46" y="39" width="39" height="24" rx="8"></rect>
        <mask id="mask-2" maskContentUnits="userSpaceOnUse" maskUnits="objectBoundingBox" x="0" y="0" width="39" height="24" fill="white">
            <use xlink:href="#path-1"></use>
        </mask>
        <rect id="path-3" x="33" y="27" width="36" height="48"></rect>
        <mask id="mask-4" maskContentUnits="userSpaceOnUse" maskUnits="objectBoundingBox" x="-1" y="-1" width="38" height="50">
            <rect x="32" y="26" width="38" height="50" fill="white"></rect>
            <use xlink:href="#path-3" fill="black"></use>
        </mask>
    </defs>
    <g id="drunk" stroke="none" stroke-width="1" fill="none" fill-rule="evenodd">
        <path d="M51,101 C78.6142375,101 101,78.6142375 101,51 C101,23.3857625 78.6142375,1 51,1 C23.3857625,1 1,23.3857625 1,51 C1,78.6142375 23.3857625,101 51,101 Z" id="Oval-1" fill="#FF0C0C"></path>
        <ellipse id="Oval-2" stroke="#FFFFFF" cx="33.5" cy="23" rx="4.5" ry="4"></ellipse>
        <ellipse id="Oval-2" stroke="#FFFFFF" cx="66.5" cy="24" rx="5.5" ry="4"></ellipse>
        <ellipse id="Oval-2" stroke="#FFFFFF" cx="59.5" cy="19" rx="4.5" ry="4"></ellipse>
        <ellipse id="Oval-2" stroke="#FFFFFF" cx="51" cy="17" rx="7" ry="6"></ellipse>
        <ellipse id="Oval-2" stroke="#FFFFFF" cx="63.5" cy="19" rx="2.5" ry="2"></ellipse>
        <ellipse id="Oval-2" stroke="#FFFFFF" cx="45.5" cy="14" rx="2.5" ry="2"></ellipse>
        <ellipse id="Oval-2" stroke="#FFFFFF" cx="35.5" cy="19" rx="2.5" ry="4"></ellipse>
        <ellipse id="Oval-2" stroke="#FFFFFF" cx="40.5" cy="19" rx="5.5" ry="6"></ellipse>
        <rect id="Rectangle-5" fill="#FF0000" x="24" y="24" width="52" height="18"></rect>
        <use id="Rectangle-3" stroke="#FFFFFF" mask="url(#mask-2)" stroke-width="10" xlink:href="#path-1"></use>
        <rect id="Rectangle-4" fill="#FF0000" x="45" y="36" width="27" height="30"></rect>
        <rect id="Rectangle-1" fill="#FFFFFF" x="35" y="35" width="32" height="38"></rect>
        <use id="Rectangle-2" stroke="#FFFFFF" mask="url(#mask-4)" stroke-width="2" stroke-linecap="round" stroke-linejoin="round" xlink:href="#path-3"></use>
    </g>
</svg>