<?xml version="1.0" encoding="UTF-8" standalone="no"?>
<svg width="102px" height="102px" viewBox="0 0 102 102" version="1.1" xmlns="http://www.w3.org/2000/svg" xmlns:xlink="http://www.w3.org/1999/xlink">
    <!-- Generator: Sketch 3.8.3 (29802) - http://www.bohemiancoding.com/sketch -->
    <title>fat</title>
    <desc>Created with Sketch.</desc>
    <defs></defs>
    <g id="fat" stroke="none" stroke-width="1" fill="none" fill-rule="evenodd">
        <path d="M51,101 C78.6142375,101 101,78.6142375 101,51 C101,23.3857625 78.6142375,1 51,1 C23.3857625,1 1,23.3857625 1,51 C1,78.6142375 23.3857625,101 51,101 Z" id="Oval-1" fill="#FF0B0B"></path>
        <path d="M26.5,75.5 L59.5,42.5" id="Line" stroke="#FFFFFF" stroke-width="7" stroke-linecap="round"></path>
        <path d="M55,47 L64.5,37.5" id="Line" stroke="#FFFFFF" stroke-width="16" stroke-linecap="square"></path>
        <circle id="Oval-2" fill="#FF0000" cx="69" cy="33" r="11"></circle>
        <circle id="Oval-2" fill="#FFFFFF" cx="69" cy="33" r="9"></circle>
        <path d="M44.207984,47.1789073 C44.207984,47.1789073 43.4151019,47.8596463 43.5707686,49.9010148 C43.7264353,51.9423833 45.1612865,52.6744457 43.7699591,53.9936931 C39.8642264,57.6970828 49.5198094,50.8162239 49.5198094,50.8162239" id="Path-4" stroke="#FFFFFF" fill="#FFFFFF"></path>
        <path d="M48.7673017,51.985297 C48.7673017,51.985297 47.9744195,52.6660361 48.1300863,54.7074045 C48.285753,56.748773 49.7206041,57.4808355 48.3292767,58.8000828 C44.4235441,62.5034725 54.079127,55.6226136 54.079127,55.6226136" id="Path-4" stroke="#FFFFFF" fill="#FFFFFF" transform="translate(50.739045, 55.940025) scale(1, -1) rotate(90.000000) translate(-50.739045, -55.940025) "></path>
    </g>
</svg>