<?xml version="1.0" encoding="UTF-8" standalone="no"?>
<svg width="102px" height="102px" viewBox="0 0 102 102" version="1.1" xmlns="http://www.w3.org/2000/svg" xmlns:xlink="http://www.w3.org/1999/xlink">
    <!-- Generator: Sketch 3.8.3 (29802) - http://www.bohemiancoding.com/sketch -->
    <title>slim</title>
    <desc>Created with Sketch.</desc>
    <defs></defs>
    <g id="slim" stroke="none" stroke-width="1" fill="none" fill-rule="evenodd">
        <path d="M51,101 C78.6142375,101 101,78.6142375 101,51 C101,23.3857625 78.6142375,1 51,1 C23.3857625,1 1,23.3857625 1,51 C1,78.6142375 23.3857625,101 51,101 Z" id="Oval-1" fill="#008000"></path>
        <circle id="Oval-2" fill="#FFFFFF" cx="83" cy="19" r="3"></circle>
        <path d="M74.0046374,28.9993911 C68.5046371,22.9993911 61.0046371,18.9993911 61.0046371,18.9993911 C32.0046369,67.4993911 6.60586645,90.4993911 7.00463555,90.4993911 C9.21377455,90.4993911 11.0046356,92.2902521 11.0046356,94.4993911 C11.0026939,94.6686761 42.5046333,59.4993911 83.0046333,41.4993911 C83.0046333,41.4993911 79.5046377,34.9993911 74.0046374,28.9993911 Z" id="Oval-2" fill="#FFFFFF" transform="translate(45.002318, 56.749696) scale(-1, -1) translate(-45.002318, -56.749696) "></path>
    </g>
</svg>