<?xml version="1.0" encoding="UTF-8" standalone="no"?>
<svg width="102px" height="102px" viewBox="0 0 102 102" version="1.1" xmlns="http://www.w3.org/2000/svg" xmlns:xlink="http://www.w3.org/1999/xlink">
    <!-- Generator: Sketch 3.8.3 (29802) - http://www.bohemiancoding.com/sketch -->
    <title>slow</title>
    <desc>Created with Sketch.</desc>
    <defs></defs>
    <g id="slow" stroke="none" stroke-width="1" fill="none" fill-rule="evenodd">
        <path d="M51,101 C78.6142375,101 101,78.6142375 101,51 C101,23.3857625 78.6142375,1 51,1 C23.3857625,1 1,23.3857625 1,51 C1,78.6142375 23.3857625,101 51,101 Z" id="Oval-1" fill="#FF0C0C"></path>
        <path d="M50,62.2062778 L62.1960542,62.2062776 C62.1960542,62.2062776 67.0176611,62.5064994 69.3139096,58.4855884 C70.0612012,57.1770223 70.0465668,55.4681164 71.1902409,54.5074699 C73.3367383,52.704487 74.9398328,53.4506658 76.4287282,51.2262993 C77.9176236,49.0019327 69.3139096,46.0591671 65.4399815,49.7614832 C61.7267322,53.3102385 61.9093046,58.8453977 53.7798376,59.770352 C53.4280613,59.8103764 53.0846901,59.801129 52.6768283,59.8639936 C51.1353544,60.1015844 50,62.2062778 50,62.2062778 Z" id="Path-3" fill="#FFFFFF"></path>
        <path d="M28.3113536,62.3270827 C28.3113536,62.3270827 38.2494763,62.3270825 38.6641541,62.3270826 C38.7306058,62.3270826 35.6259346,60.5121346 34.7485804,57.2898023 C34.5738503,56.6480567 30.5014452,56.9631774 28.3113536,59.3473845 C25.360808,62.5594473 28.3113536,62.3270827 28.3113536,62.3270827 Z" id="Path-4" fill="#FFFFFF"></path>
        <path d="M70,48 L70,42" id="Line" stroke="#FFFFFF" stroke-linecap="square"></path>
        <path d="M73,48 L76.4995313,42.5061619" id="Line" stroke="#FFFFFF" stroke-linecap="square"></path>
        <circle id="Oval-4" fill="#FFFFFF" cx="70.0373436" cy="41.1670181" r="1.16701812"></circle>
        <circle id="Oval-4" fill="#FFFFFF" cx="76.6476371" cy="42.2388524" r="1.16499996"></circle>
        <path d="M51.8665681,57.6983618 C51.8665681,57.6983618 58.4796538,58.1804156 62.1869527,48.8500581 C62.3812361,48.3610947 61.2556394,48.512804 60.5879626,47.7486071 C59.6844496,46.7144814 59.8312335,39.3781858 50.1750054,38.1021543 C42.4257969,37.0781278 36.6104522,44.0072652 35.4461407,47.514834 C34.0226287,51.8032624 35.8087172,61.9907227 43.6716621,61.9907235 C44.611328,61.9907236 45.5052842,62.0262314 46.1615629,61.8347225 C46.8616509,61.6304296 48.6920088,60.8076523 49.1039982,60.4733753 C49.9832439,59.7599792 51.8665681,57.6983618 51.8665681,57.6983618 Z" id="Path-7" fill="#FFFFFF"></path>
        <path d="M44.2215595,63.0226154 C51.751852,61.5959969 51.9763073,57.7916526 52.5253728,55.7117414 C54.0053846,50.10532 49.8405382,46.252113 46.8519192,46.0315461 C43.8346157,45.8088623 42.216133,46.7509299 40.7229229,49.3098882 C39.012966,52.2402922 40.5054241,56.5535392 43.4278182,57.1751336 C46.3502123,57.7967281 48.3497493,55.5037078 48.3497537,53.2999009 C48.3497597,50.3183058 45.8617665,49.6037492 45.0143535,49.3098883" id="Path-8" stroke="#FF0C0C" stroke-width="2" stroke-linecap="round"></path>
    </g>
</svg>