<?xml version="1.0" encoding="UTF-8" standalone="no"?>
<svg width="102px" height="102px" viewBox="0 0 102 102" version="1.1" xmlns="http://www.w3.org/2000/svg" xmlns:xlink="http://www.w3.org/1999/xlink">
    <!-- Generator: Sketch 3.8.3 (29802) - http://www.bohemiancoding.com/sketch -->
    <title>slow</title>
    <desc>Created with Sketch.</desc>
    <defs></defs>
    <g id="slow" stroke="none" stroke-width="1" fill="none" fill-rule="evenodd">
        <path d="M51,101 C78.6142375,101 101,78.6142375 101,51 C101,23.3857625 78.6142375,1 51,1 C23.3857625,1 1,23.3857625 1,51 C1,78.6142375 23.3857625,101 51,101 Z" id="Oval-1" fill="#FF0C0C"></path>
        <path d="M48,65.2735531 L61.9708049,65.2735528 C61.9708049,65.2735528 67.4940445,65.6174625 70.1244394,61.0114347 C70.9804757,59.5124482 70.9637117,57.5548649 72.2738115,56.4544268 C74.7326639,54.3890766 76.5690381,55.2438382 78.2745952,52.6957853 C79.9801524,50.1477324 70.1244394,46.7767401 65.6867834,51.0178115 C61.4331879,55.0829761 61.6423279,61.423603 52.3298736,62.4831552 C51.9269074,62.5290039 51.5335693,62.5184108 51.0663561,62.5904234 C49.3005694,62.862588 48,65.2735531 48,65.2735531 Z" id="Path-3" fill="#FFFFFF"></path>
        <path d="M23.5021797,65.1022714 C23.5021797,65.1022714 34.8864825,65.1022712 35.3615035,65.1022713 C35.4376252,65.1022713 31.8811671,63.0232149 30.8761416,59.3319739 C30.6759851,58.5968424 26.01097,58.9578191 23.5021797,61.6889722 C20.1222754,65.3684494 23.5021797,65.1022714 23.5021797,65.1022714 Z" id="Path-4" fill="#FFFFFF"></path>
        <path d="M71,48.8731106 L71,42" id="Line" stroke="#FFFFFF" stroke-linecap="square"></path>
        <path d="M74,48.8731106 L78.0087776,42.5798177" id="Line" stroke="#FFFFFF" stroke-linecap="square"></path>
        <ellipse id="Oval-4" fill="#FFFFFF" cx="70.3368408" cy="40.3368408" rx="1.33684077" ry="1.33684077"></ellipse>
        <ellipse id="Oval-4" fill="#FFFFFF" cx="78.3345289" cy="42.3345289" rx="1.33452893" ry="1.33452893"></ellipse>
        <path d="M50.3209646,59.5648365 C50.3209646,59.5648365 57.8963762,60.117038 62.1431554,49.4289415 C62.3657106,48.868825 61.0763189,49.0426107 60.3114828,48.1672091 C59.276492,46.982599 59.4446357,38.5787373 48.3832484,37.1170197 C39.5063872,35.9439784 32.8448026,43.881433 31.5110624,47.8994177 C29.8804032,52.8118915 31.9264005,64.481815 40.9335488,64.481816 C42.0099534,64.4818161 43.0339966,64.5224909 43.785776,64.303114 C44.5877398,64.0690927 46.6844484,63.1265861 47.1563899,62.7436656 C48.1635821,61.9264573 50.3209646,59.5648365 50.3209646,59.5648365 Z" id="Path-7" fill="#FFFFFF"></path>
        <path d="M40.8358742,65.4997197 C49.4619631,63.8655019 49.7190807,59.5075554 50.3480455,57.1249788 C52.0434262,50.7027197 47.2725179,46.2888 43.8489997,46.0361367 C40.3926229,45.7810482 38.5386212,46.860204 36.8281216,49.791538 C34.8693344,53.1483698 36.5789727,58.0892737 39.9266289,58.8013216 C43.2742852,59.5133694 45.5647917,56.8866725 45.5647968,54.3621711 C45.5648037,50.9466989 42.7147616,50.1281611 41.7440343,49.7915381" id="Path-8" stroke="#FF0C0C" stroke-width="2" stroke-linecap="round"></path>
    </g>
</svg>