<?xml version="1.0" encoding="UTF-8" standalone="no"?>
<svg width="102px" height="102px" viewBox="0 0 102 102" version="1.1" xmlns="http://www.w3.org/2000/svg" xmlns:xlink="http://www.w3.org/1999/xlink">
    <!-- Generator: Sketch 3.8.3 (29802) - http://www.bohemiancoding.com/sketch -->
    <title>switcharoonie</title>
    <desc>Created with Sketch.</desc>
    <defs></defs>
    <g id="switcharoonie" stroke="none" stroke-width="1" fill="none" fill-rule="evenodd">
        <path d="M51,101 C78.6142375,101 101,78.6142375 101,51 C101,23.3857625 78.6142375,1 51,1 C23.3857625,1 1,23.3857625 1,51 C1,78.6142375 23.3857625,101 51,101 Z" id="Oval-1" fill="#3453BC"></path>
        <circle id="Oval-2" fill="#8BC34A" cx="31" cy="39" r="4"></circle>
        <circle id="Oval-2" fill="#FDD835" cx="52" cy="76" r="4"></circle>
        <circle id="Oval-2" fill="#F44336" cx="72" cy="39" r="4"></circle>
        <path d="M45.779858,75.3587297 C45.779858,75.3587297 23.9564024,69.8891886 27.447939,46.8575628" id="Line" stroke="#FFFFFF" stroke-linecap="square"></path>
        <path d="M83.3612267,65.9521779 C83.3612267,65.9521779 62.8865596,72.5035366 53.1024543,51.5737556" id="Line" stroke="#FFFFFF" stroke-linecap="square" transform="translate(68.231841, 59.248520) scale(-1, -1) rotate(90.000000) translate(-68.231841, -59.248520) "></path>
        <path d="M66.3593629,26.9090821 C66.3593629,26.9090821 51.9150938,41.7340152 34.3254656,28.8388763" id="Line" stroke="#FFFFFF" stroke-linecap="square" transform="translate(50.342414, 30.509153) scale(-1, -1) translate(-50.342414, -30.509153) "></path>
        <polygon id="Triangle-1" fill="#FFFFFF" transform="translate(28.201656, 46.537697) rotate(18.000000) translate(-28.201656, -46.537697) " points="28.201656 43.5376974 31.201656 49.5376974 25.201656 49.5376974"></polygon>
        <polygon id="Triangle-1" fill="#FFFFFF" transform="translate(66.335275, 32.814708) rotate(134.000000) translate(-66.335275, -32.814708) " points="66.3352752 29.8147077 69.3352752 35.8147077 63.3352752 35.8147077"></polygon>
        <polygon id="Triangle-1" fill="#FFFFFF" transform="translate(60.213123, 74.116688) rotate(250.000000) translate(-60.213123, -74.116688) " points="60.2131226 71.1166876 63.2131226 77.1166876 57.2131226 77.1166876"></polygon>
    </g>
</svg>